Basic.DvDRip.XviD.2003

Format : AVI
Format/Info : Audio Video Interleave
File size : 633 MiB
Duration : 1h 38mn
Overall bit rate : 899 Kbps
Original source form/Distributed : Basic DvDR
Encoded by : Vice / Vicerock/Vicez
Subject : Basic DvDRip XviD
Recorded date : 1 July 2010 Time 14:00
Writing application : MEncoder SVN-r29352(20090610-gcc4.3.3)
Writing library : VirtualDub build 32618/release
Original source form : Retail DvD
Original source form/Name : Avi XviD Movies
Comment : Vice Movie Collection

Video
ID : 0
Format : MPEG-4 Visual
Format profile : AdvancedSimple@L5
Format settings, BVOP : Yes
Format settings, QPel : No
Format settings, GMC : No warppoints
Format settings, Matrix : Default (H.263)
Muxing mode : Packed bitstream
Codec ID : XVID
Codec ID/Hint : XviD
Duration : 1h 38mn
Bit rate : 793 Kbps
Width : 640 pixels
Height : 360 pixels
Display aspect ratio : 16:9
Frame rate : 25.000 fps
Resolution : 24 bits
Colorimetry : 4:2:0
Scan type : Progressive
Bits/(Pixel*Frame) : 0.138
Stream size : 559 MiB (88%)
Writing library : XviD 1.1.2 (UTC 2006-11-01)

Audio
ID : 1
Format : MPEG Audio
Format version : Version 2
Format profile : Layer 3
Codec ID : 55
Codec ID/Hint : MP3
Duration : 1h 38mn
Bit rate mode : Constant
Bit rate : 96.0 Kbps
Channel(s) : 2 channels
Sampling rate : 22.05 KHz
Resolution : 16 bits
Stream size : 67.7 MiB (11%)
Alignment : Split accross interleaves
Interleave, duration : 40 ms (1.00 video frame)
Interleave, preload duration : 500 ms
Writing library : LAME3.98

A helicopter circles over the Panamanian jungle. On board is a team of Army Ranger trainees and their instructor, Nathan West (Samuel L. Jackson). Their objective is to move through the jungle while a hurricane rages above, use live fire to hit pop-up metal targets, then rendezvous at a small bunker.

Seventeen hours later, a Ranger later identified as Ray Dunbar emerges from the jungle carrying one of his wounded comrades, Second Lieutenant Levi Kendall, on his back. We then see another soldier walk out of the jungle and shoot at Dunbar. This soldier, later identified as Mueller, is killed in self-defense by Dunbar. Apparently, the mission has gone horribly wrong. The rest of the team, and West, are presumed dead.

Starring-> John Travolta,Samuel L. Jackson,Connie Nielsen & Timothy Daly
 
http://www.imdb.com/title/tt0264395/

PLEASE SEED AND ENJOY THANKS

screen shots
 
http://img404.imageshack.us/img404/1748/basicxvidviceavisnapsho.jpg 
http://img231.imageshack.us/img231/1748/basicxvidviceavisnapsho.jpg 
http://img215.imageshack.us/img215/1748/basicxvidviceavisnapsho.jpg 
http://img293.imageshack.us/img293/1748/basicxvidviceavisnapsho.jpg

screen shot (thumbnails)
 
http://img691.imageshack.us/img691/82/basicxvidviceavithumbs2.jpg

Check Out My Other Torrents
     
http://thepiratebay.org/user/vicerock/

